<?xml version="1.0" encoding="UTF-8" standalone="no"?>
<svg width="100%" height="100%" viewBox="0 0 151 151" version="1.1" xmlns="http://www.w3.org/2000/svg" xmlns:xlink="http://www.w3.org/1999/xlink" xml:space="preserve" xmlns:serif="http://www.serif.com/" style="fill-rule:evenodd;clip-rule:evenodd;stroke-miterlimit:10;">
    <g transform="matrix(1,0,0,1,-2347,-3041)">
        <g id="ArtBoard1" transform="matrix(0.87466,0,0,0.986508,912.054,1197.94)">
            <rect x="1641.61" y="1868.4" width="171.495" height="152.051" style="fill:none;"/>
            <g transform="matrix(1.1433,0,0,1.01368,1788.34,1942.01)">
                <path d="M0,8.982C-3.405,29.578 -21.458,50.978 -47.6,56.473C-76.741,62.6 -99.907,43.707 -106.452,22.494C-110.816,8.35 -108.12,-9.422 -96.655,-21.387C-87.372,-36.836 -71.617,-53.618 -50.068,-50.44C-47.517,-50.063 -45.156,-49.395 -42.884,-48.6C-27.267,-45.29 -14.446,-34.99 -7.862,-22.879C-6.247,-19.91 -5.134,-16.947 -4.39,-13.99C-0.342,-6.873 1.266,1.322 0,8.982" style="fill:rgb(255,211,102);fill-rule:nonzero;"/>
            </g>
            <g transform="matrix(1.1433,0,0,1.01368,1721.82,1959.78)">
                <path d="M0,-25.612C0.377,-26.83 0.662,-27.995 1.095,-29.102C1.994,-31.405 2.87,-33.727 3.953,-35.944C4.684,-37.439 5.749,-38.772 6.67,-40.174C8.69,-43.25 11.045,-46.065 13.649,-48.647C15.214,-50.199 17.082,-51.391 19.077,-52.396C21.368,-53.552 23.695,-54.511 26.272,-54.769C29.164,-55.059 31.923,-54.436 34.641,-53.547C35.99,-53.106 37.348,-52.68 38.664,-52.149C40.924,-51.239 42.856,-49.873 44.602,-48.128C46.072,-46.66 46.36,-44.883 46.789,-43.038C47.12,-41.619 47.231,-40.196 47.219,-38.775C47.207,-37.427 46.953,-36.076 46.74,-34.736C46.599,-33.846 46.39,-32.959 46.129,-32.096C45.493,-29.999 44.663,-27.981 43.518,-26.101C42.896,-25.079 42.36,-24.001 41.702,-23.004C40.786,-21.614 39.775,-20.287 38.837,-18.912C38.24,-18.038 37.715,-17.116 37.131,-16.234C36.904,-15.89 36.571,-15.617 36.338,-15.276C35.316,-13.785 34.3,-12.29 33.309,-10.778C32.77,-9.956 32.294,-9.092 31.777,-8.255C31.051,-7.076 30.297,-5.914 29.586,-4.726C28.809,-3.429 28.069,-2.109 27.311,-0.8C26.675,0.295 26.051,1.399 25.396,2.482C24.66,3.699 23.921,4.915 23.134,6.099C22.34,7.296 21.504,8.465 20.655,9.623C19.364,11.383 18.04,13.12 16.74,14.873C16.196,15.607 15.685,16.366 15.14,17.1C14.696,17.697 14.22,18.27 13.766,18.861C11.966,21.196 10.399,21.345 8.364,23.504C8.1,23.784 6.245,25.434 6.013,25.749C5.276,26.749 5.12,26.689 3.485,27.895C2.163,28.691 2.049,29.068 0.671,29.271C-0.514,29.447 -1.412,28.793 -2.24,28.063C-2.901,27.482 -3.564,26.896 -4.158,26.25C-4.746,25.61 -5.37,24.955 -5.763,24.195C-6.351,23.059 -7.127,22.136 -8.043,21.258C-9.102,20.244 -9.991,19.055 -11.019,18.007C-11.566,17.45 -12.275,17.058 -12.87,16.543C-13.763,15.771 -14.632,14.97 -15.49,14.157C-16.344,13.347 -17.197,12.533 -18.003,11.675C-18.834,10.792 -19.606,9.853 -20.404,8.938C-20.462,8.872 -20.503,8.772 -20.575,8.741C-21.595,8.3 -22.038,7.37 -22.634,6.515C-23.726,4.949 -24.913,3.43 -26.209,2.028C-27.581,0.544 -29.119,-0.788 -30.597,-2.172C-31.689,-3.195 -32.762,-4.245 -33.917,-5.193C-35.192,-6.238 -36.061,-7.592 -37.042,-8.874C-38.77,-11.133 -39.995,-13.669 -41.188,-16.221C-42.336,-18.678 -43.211,-21.237 -43.755,-23.903C-43.959,-24.904 -44.298,-25.887 -44.406,-26.896C-44.555,-28.304 -44.654,-29.735 -44.576,-31.146C-44.475,-32.985 -44.307,-34.84 -43.927,-36.638C-43.622,-38.079 -43.008,-39.466 -42.44,-40.839C-41.759,-42.484 -40.663,-43.882 -39.544,-45.248C-37.353,-47.921 -34.485,-49.119 -31.054,-49.23C-28.042,-49.327 -25.153,-48.828 -22.434,-47.597C-20.75,-46.834 -19.17,-45.823 -17.594,-44.841C-16.361,-44.074 -15.152,-43.246 -14.031,-42.325C-12.806,-41.319 -11.678,-40.19 -10.539,-39.083C-9.784,-38.349 -9.056,-37.584 -8.367,-36.788C-7.45,-35.727 -6.586,-34.619 -5.691,-33.538C-5.233,-32.984 -4.733,-32.465 -4.293,-31.899C-3.786,-31.245 -3.298,-30.574 -2.845,-29.882C-2.015,-28.617 -1.22,-27.329 -0.403,-26.055C-0.309,-25.909 -0.167,-25.793 0,-25.612" style="fill:rgb(87,205,177);fill-rule:nonzero;"/>
            </g>
            <g transform="matrix(1.1433,0,0,1.01368,1737.23,1968.87)">
                <path d="M0,-38.41C1.15,-39.488 2.34,-40.545 3.474,-41.68C5.376,-43.585 7.552,-44.897 9.723,-46.216C12.889,-48.14 16.167,-49.662 19.531,-50.893C21.764,-51.71 23.962,-52.711 26.179,-53.615C28.442,-54.537 30.755,-54.973 33.075,-55.326C33.689,-55.419 34.304,-55.523 34.919,-55.624C38.117,-56.151 40.348,-54.513 42.176,-51.896C43.566,-49.907 44.318,-47.559 44.627,-44.975C44.791,-43.596 44.895,-42.16 44.769,-40.751C44.644,-39.356 44.213,-37.957 43.516,-36.694C42.984,-35.732 42.433,-34.783 41.92,-33.809C41.36,-32.746 40.858,-31.644 40.283,-30.592C39.819,-29.742 39.315,-28.912 38.774,-28.122C37.504,-26.267 36.215,-24.426 34.904,-22.608C34.407,-21.918 33.816,-21.319 33.291,-20.654C32.284,-19.375 31.315,-18.053 30.288,-16.797C29.271,-15.554 28.236,-14.321 27.146,-13.168C24.667,-10.545 22.435,-7.663 20.29,-4.676C19.478,-3.546 18.539,-2.539 17.694,-1.437C16.722,-0.168 15.808,1.162 14.834,2.43C14.274,3.158 13.637,3.806 13.051,4.507C12.345,5.351 11.495,6.113 10.994,7.09C10.165,8.707 8.718,9.571 7.825,11.067C6.952,12.531 5.816,13.719 4.607,14.755C2.462,16.593 0.218,18.261 -1.927,20.099C-2.751,20.805 -3.593,21.265 -4.532,21.519C-4.634,21.547 -4.744,21.561 -4.843,21.547C-7.428,21.172 -9.414,20.392 -11.054,17.943C-12.358,15.997 -13.799,14.412 -14.603,12.034C-15.262,10.084 -16.387,8.031 -17.475,6.362C-18.131,5.355 -18.815,4.372 -19.451,3.345C-19.994,2.468 -20.469,1.531 -21.003,0.647C-21.822,-0.71 -22.663,-2.047 -23.5,-3.388C-24.011,-4.206 -24.554,-4.996 -25.044,-5.832C-25.847,-7.203 -26.638,-8.587 -27.401,-9.992C-28.248,-11.55 -29.037,-13.155 -29.89,-14.707C-30.679,-16.143 -31.525,-17.531 -32.337,-18.948C-32.819,-19.789 -33.312,-20.624 -33.75,-21.499C-34.219,-22.433 -34.68,-23.38 -35.054,-24.376C-36.012,-26.923 -36.927,-29.496 -37.844,-32.068C-38.418,-33.676 -39.036,-35.265 -39.502,-36.927C-39.935,-38.476 -40.317,-40.077 -40.5,-41.714C-40.77,-44.133 -40.599,-46.558 -39.55,-48.956C-39.081,-50.028 -38.367,-50.799 -37.735,-51.673C-36.644,-53.18 -35.558,-54.705 -34.35,-56.077C-33.606,-56.922 -32.668,-57.563 -31.767,-58.181C-29.368,-59.826 -26.847,-59.971 -24.301,-59.756C-22.241,-59.581 -20.245,-59.135 -18.406,-58.206C-16.671,-57.33 -14.946,-56.39 -13.347,-55.25C-11.68,-54.062 -10.167,-52.603 -8.589,-51.259C-6.685,-49.636 -4.866,-47.884 -3.392,-45.737C-2.487,-44.418 -1.763,-42.909 -1.053,-41.416C-0.616,-40.498 -0.357,-39.451 0,-38.41" style="fill:rgb(149,146,188);fill-rule:nonzero;"/>
            </g>
            <g transform="matrix(1.1433,0,0,1.01368,1726.42,1959.43)">
                <path d="M0,-25.465C-4.327,-24.762 -2.206,-27 -11.868,-37.056C-20.292,-45.822 -23.755,-45.813 -25.907,-46.15C-29.405,-46.699 -35.786,-47.559 -38.431,-43.421C-41.817,-38.125 -42.162,-30.987 -39.955,-24.271C-35.543,-10.848 -32.685,-8.135 -28.914,-3.053C-12.471,19.103 -4.747,30.805 2.169,30.065C6.598,29.591 6.491,26.482 22.836,6.242C35.029,-8.855 38.587,-11.459 41.099,-20.354C41.816,-22.892 46.316,-39.636 40.047,-47.632C33.275,-56.27 19.22,-47.962 17.844,-47.149C11.259,-43.257 7.322,-37.146 5.392,-33.633C3.505,-27.296 1.504,-25.709 0,-25.465Z" style="fill:none;fill-rule:nonzero;stroke:rgb(243,67,67);stroke-width:1.79px;"/>
            </g>
        </g>
    </g>
</svg>
