<?xml version="1.0" encoding="UTF-8" standalone="no"?>
<svg width="100%" height="100%" viewBox="0 0 150 150" version="1.1" xmlns="http://www.w3.org/2000/svg" xmlns:xlink="http://www.w3.org/1999/xlink" xml:space="preserve" style="fill-rule:evenodd;clip-rule:evenodd;stroke-linejoin:round;stroke-miterlimit:2;">
    <g transform="matrix(1,0,0,1,-6501,0)">
        <g id="ArtBoard2" transform="matrix(0.789405,0,0,0.874395,1369.01,382.929)">
            <rect x="6501.08" y="-437.936" width="190.017" height="171.547" style="fill:none;"/>
            <clipPath id="_clip1">
                <rect x="6501.08" y="-437.936" width="190.017" height="171.547"/>
            </clipPath>
            <g clip-path="url(#_clip1)">
                <g transform="matrix(1.26678,0,0,1.14365,6050.09,-38.6818)">
                    <path d="M0,-458.025C17.234,-458.633 34.237,-459.569 51.256,-459.751C73.438,-459.987 95.634,-459.496 117.823,-459.548C161.889,-459.651 205.956,-459.764 250.018,-460.154C287.938,-460.49 325.848,-461.313 363.766,-461.744C411.931,-462.292 460.1,-463 508.267,-463.001C546.182,-463.002 584.095,-461.867 622.014,-461.578C639.722,-461.442 657.442,-462.233 675.16,-462.385C692.909,-462.538 710.662,-462.419 728.063,-462.419C734.193,-455.999 736.298,-449.78 736.366,-443.147C736.549,-425.194 737.022,-407.237 736.702,-389.287C736.408,-372.809 735.631,-356.322 734.353,-339.867C732.209,-312.287 729.228,-284.741 727.109,-257.161C725.305,-233.694 723.457,-210.207 723.03,-186.716C722.603,-163.2 722.637,-139.608 724.798,-116.158C727.24,-89.673 723.478,-63.428 722.361,-37.079C722.155,-32.243 722.331,-27.399 722.331,-21.954C718.882,-21.544 716.015,-21.026 713.113,-20.892C706.302,-20.579 699.468,-20.522 692.654,-20.234C649.709,-18.42 606.748,-16.763 563.831,-14.658C539.664,-13.473 515.598,-11.265 491.437,-10.002C465.2,-8.63 438.896,-7.92 412.637,-6.741C376.174,-5.103 339.737,-3.168 303.267,-1.62C286.24,-0.897 269.155,-0.897 252.109,-0.367C229.591,0.333 207.088,1.266 184.574,2.035C168.21,2.595 151.843,3.154 135.469,3.527C112.61,4.05 89.746,4.507 66.878,4.786C51.169,4.977 35.451,4.833 19.737,4.79C18.116,4.785 16.496,4.443 14.129,4.172C14.129,1.023 14.26,-1.818 14.107,-4.651C13.414,-17.472 12.286,-30.288 11.98,-43.113C11.528,-62.005 11.605,-80.903 11.525,-99.798C11.473,-111.897 14.089,-123.879 12.802,-136.106C11.773,-145.894 15.121,-155.872 15.29,-165.776C15.533,-180.067 14.738,-194.369 14.237,-208.663C13.659,-225.144 13.23,-241.631 12.148,-258.096C11.29,-271.162 9.27,-284.188 8.271,-297.252C7.235,-310.803 6.893,-324.379 6.086,-337.94C5.526,-347.356 4.495,-356.759 4.037,-366.176C3.543,-376.346 3.389,-386.525 3.239,-396.701C3.079,-407.587 2.942,-418.476 3.088,-429.362C3.195,-437.372 3.522,-445.349 0.081,-453.138C-0.494,-454.441 0,-455.981 0,-458.025" style="fill:rgb(242,46,46);fill-rule:nonzero;"/>
                </g>
                <g transform="matrix(1.26678,0,0,1.14365,6560.14,-372.756)">
                    <path d="M0,-2.738C-0.232,-2.854 -0.504,-2.932 -0.801,-2.97C-1.098,-3.009 -1.395,-3.035 -1.692,-3.035L-3.797,-3.035L-3.797,0.297L-1.898,0.297C-1.614,0.297 -1.304,0.284 -0.981,0.271C-0.659,0.245 -0.362,0.193 -0.103,0.09C0.155,-0.013 0.374,-0.181 0.542,-0.401C0.71,-0.62 0.801,-0.93 0.801,-1.33C0.801,-1.705 0.723,-2.002 0.568,-2.221C0.426,-2.441 0.232,-2.609 0,-2.738" style="fill:white;fill-rule:nonzero;"/>
                </g>
                <g transform="matrix(1.26678,0,0,1.14365,6595.38,-374.471)">
                    <path d="M0,4.546L3.59,4.546L1.782,0L0,4.546Z" style="fill:white;fill-rule:nonzero;"/>
                </g>
                <g transform="matrix(1.26678,0,0,1.14365,6547.61,-354.665)">
                    <path d="M0,4.997L3.254,4.997L3.254,0L3.215,0L0,4.997Z" style="fill:white;fill-rule:nonzero;"/>
                </g>
                <g transform="matrix(1.26678,0,0,1.14365,6594.1,-338.184)">
                    <path d="M0,-24.445L-1.227,-21.346L-4.791,-21.346L1.537,-35.99L4.21,-35.99L10.576,-21.346L6.935,-21.346L5.669,-24.445L0,-24.445ZM-2.157,6.664L-8.755,6.664L-8.755,9.646L-2.647,9.646L-2.647,12.63L-8.755,12.63L-8.755,18.324L-11.984,18.324L-11.984,3.68L-2.157,3.68L-2.157,6.664ZM-17.188,-6.418L-18.854,1.537L-20.519,-6.457L-25.452,-8.071L-20.519,-9.491L-18.854,-14.385L-17.188,-9.465L-12.332,-8.058L-17.188,-6.418ZM-17.11,18.324L-20.338,18.324L-20.338,3.68L-17.11,3.68L-17.11,18.324ZM-24.148,18.324L-33.355,18.324L-33.355,3.68L-30.127,3.68L-30.127,15.341L-24.148,15.341L-24.148,18.324ZM-29.029,-27.196L-30.618,-27.196L-30.618,-21.346L-33.846,-21.346L-33.846,-35.99L-28.177,-35.99C-27.428,-35.99 -26.731,-35.912 -26.059,-35.77C-25.388,-35.628 -24.807,-35.383 -24.303,-35.047C-23.799,-34.711 -23.399,-34.259 -23.102,-33.678C-22.805,-33.11 -22.663,-32.387 -22.663,-31.534C-22.663,-30.501 -22.934,-29.623 -23.464,-28.9C-24.006,-28.177 -24.794,-27.712 -25.827,-27.518L-22.108,-21.333L-25.982,-21.333L-29.029,-27.196ZM-18.247,-35.99L-8.29,-35.99L-8.29,-33.007L-15.018,-33.007L-15.018,-30.282L-8.665,-30.282L-8.665,-27.299L-15.018,-27.299L-15.018,-24.316L-7.929,-24.316L-7.929,-21.333L-18.247,-21.333L-18.247,-35.99ZM13.934,-31.857C14.321,-32.813 14.876,-33.614 15.574,-34.285C16.271,-34.957 17.11,-35.473 18.079,-35.822C19.047,-36.183 20.093,-36.364 21.243,-36.364C21.656,-36.364 22.082,-36.325 22.534,-36.248C22.986,-36.17 23.425,-36.054 23.864,-35.886C24.303,-35.718 24.716,-35.499 25.117,-35.228C25.517,-34.957 25.879,-34.608 26.188,-34.208L23.709,-32.18C23.386,-32.568 22.999,-32.865 22.534,-33.071C22.069,-33.278 21.54,-33.381 20.933,-33.381C20.326,-33.381 19.77,-33.265 19.241,-33.032C18.725,-32.8 18.273,-32.464 17.898,-32.051C17.524,-31.625 17.227,-31.134 17.007,-30.553C16.787,-29.972 16.684,-29.339 16.684,-28.668C16.684,-27.983 16.787,-27.351 17.007,-26.769C17.227,-26.201 17.511,-25.698 17.885,-25.284C18.26,-24.858 18.699,-24.535 19.202,-24.303C19.706,-24.07 20.248,-23.954 20.829,-23.954C21.488,-23.954 22.082,-24.096 22.586,-24.368C23.102,-24.639 23.515,-25.026 23.851,-25.53L26.537,-23.528C25.917,-22.663 25.13,-22.017 24.174,-21.604C23.218,-21.191 22.237,-20.984 21.243,-20.984C20.093,-20.984 19.047,-21.165 18.079,-21.527C17.11,-21.888 16.284,-22.405 15.574,-23.063C14.876,-23.735 14.321,-24.548 13.934,-25.491C13.546,-26.447 13.34,-27.505 13.34,-28.681C13.34,-29.843 13.533,-30.902 13.934,-31.857M43.241,18.324L2.35,18.324L2.35,3.68L12.307,3.68L12.307,6.664L5.579,6.664L5.579,9.388L11.932,9.388L11.932,12.371L5.579,12.371L5.579,15.341L45.275,15.341C50.311,7.361 53.229,-2.092 53.229,-12.216C53.229,-28.642 45.559,-43.286 33.588,-52.751L33.588,-30.527L39.851,-30.527L39.851,-35.99L43.079,-35.99L43.079,-21.346L39.851,-21.346L39.851,-27.673L33.588,-27.673L33.588,-21.346L30.36,-21.346L30.36,-55.102C22.134,-60.641 12.229,-63.87 1.563,-63.87C-26.963,-63.87 -50.091,-40.742 -50.091,-12.216C-50.091,-11.273 -50.065,-10.343 -50.014,-9.414L-39.812,-9.414L-33.859,-18.466L-30.463,-18.466L-30.463,-18.453L-30.45,-18.453L-30.45,-9.401L-28.513,-9.401L-28.513,-6.728L-30.45,-6.728L-30.45,-3.822L-33.446,-3.822L-33.446,-6.728L-49.781,-6.728C-47.031,19.215 -25.091,39.425 1.588,39.425C18.687,39.425 33.838,31.12 43.241,18.324Z" style="fill:white;fill-rule:nonzero;"/>
                </g>
            </g>
        </g>
    </g>
</svg>
