<?xml version="1.0" encoding="UTF-8" standalone="no"?>
<svg width="100%" height="100%" viewBox="0 0 151 151" version="1.1" xmlns="http://www.w3.org/2000/svg" xmlns:xlink="http://www.w3.org/1999/xlink" xml:space="preserve" xmlns:serif="http://www.serif.com/" style="fill-rule:evenodd;clip-rule:evenodd;stroke-miterlimit:10;">
    <g transform="matrix(1,0,0,1,-1676,-3216)">
        <g id="ArtBoard1" transform="matrix(0.87466,0,0,0.986508,240.71,1373.14)">
            <rect x="1641.61" y="1868.4" width="171.495" height="152.051" style="fill:none;"/>
            <g transform="matrix(1.1433,0,0,1.01368,1503.19,1274.1)">
                <clipPath id="_clip1">
                    <rect x="140.203" y="608.84" width="111.72" height="104.879" clip-rule="nonzero"/>
                </clipPath>
                <g clip-path="url(#_clip1)">
                    <g transform="matrix(1,0,0,1,180.104,710.071)">
                        <path d="M0,-100.986C3.661,-101.076 7.328,-101.265 10.982,-101.226C14.164,-101.192 17.358,-101.04 20.5,-100.691C26.544,-100.02 32.431,-98.804 37.839,-96.355C40.815,-95.007 43.88,-93.735 46.602,-92.054C51.43,-89.072 55.22,-85.097 58.645,-80.902C60.868,-78.179 62.913,-75.305 64.658,-72.315C66.451,-69.242 67.567,-65.876 68.06,-62.375C68.683,-57.954 69.406,-53.542 69.795,-49.095C70.314,-43.159 69.755,-37.254 67.157,-31.558C65.831,-28.651 64.463,-25.754 63.003,-22.895C61.533,-20.014 58.951,-17.85 56.572,-15.555C53.336,-12.434 49.574,-9.852 45.553,-7.683C41.176,-5.323 36.791,-2.849 31.786,-1.636C26.06,-0.248 20.295,0.279 14.502,-0.581C8.773,-1.431 3.187,-2.645 -1.886,-5.176C-6.351,-7.404 -10.076,-10.457 -13.947,-13.351C-16.579,-15.32 -19.15,-17.355 -21.825,-19.277C-25.672,-22.04 -28.798,-25.36 -30.554,-29.455C-31.706,-32.14 -32.141,-35.11 -32.676,-37.992C-33.721,-43.614 -33.351,-49.284 -32.69,-55C-31.744,-63.183 -29.025,-70.972 -25.761,-78.675C-24.281,-82.171 -22.752,-85.66 -20.238,-88.731C-16.034,-93.864 -11.286,-98.379 -3.943,-99.835C-2.627,-100.095 -1.328,-100.435 -0.022,-100.739L0,-100.986Z" style="fill:rgb(154,151,192);fill-rule:nonzero;"/>
                    </g>
                    <g transform="matrix(1,0,0,1,158.875,697.814)">
                        <path d="M0,-72.39C-3.396,-69.747 -11.006,-63.087 -15.158,-51.629C-16.569,-47.737 -20.466,-35.331 -15.488,-21.312C-10.092,-6.115 2.199,1.022 8.568,4.721C13.786,7.751 28.355,16.212 47.123,12.63C63.599,9.486 73.389,-1.045 77.111,-5.165C80.639,-9.071 93.209,-22.987 92.27,-43.391C92.075,-47.621 91.253,-61.192 81.065,-72.06C71.574,-82.187 59.583,-83.96 46.464,-85.901C37.259,-87.262 27.324,-88.602 16.147,-83.923C8.284,-80.632 3.003,-75.699 0,-72.39Z" style="fill:none;fill-rule:nonzero;stroke:rgb(121,116,170);stroke-width:1.46px;"/>
                    </g>
                    <g transform="matrix(1,0,0,1,194.674,682.604)">
                        <path d="M0,-27.197C0.4,-28.491 0.703,-29.728 1.163,-30.904C2.118,-33.349 3.048,-35.814 4.198,-38.168C4.974,-39.757 6.105,-41.172 7.083,-42.66C9.229,-45.927 11.728,-48.916 14.493,-51.657C16.156,-53.306 18.139,-54.572 20.257,-55.64C22.691,-56.866 25.162,-57.885 27.898,-58.16C30.97,-58.467 33.899,-57.806 36.785,-56.862C38.218,-56.393 39.66,-55.941 41.057,-55.377C43.458,-54.41 45.509,-52.96 47.363,-51.107C48.924,-49.548 49.229,-47.661 49.686,-45.702C50.037,-44.195 50.155,-42.683 50.142,-41.175C50.129,-39.743 49.859,-38.308 49.633,-36.886C49.484,-35.941 49.262,-34.999 48.984,-34.083C48.31,-31.855 47.428,-29.713 46.212,-27.717C45.551,-26.631 44.982,-25.487 44.283,-24.427C43.31,-22.952 42.237,-21.543 41.241,-20.083C40.608,-19.154 40.05,-18.175 39.43,-17.238C39.188,-16.873 38.835,-16.583 38.587,-16.221C37.502,-14.638 36.423,-13.05 35.371,-11.445C34.799,-10.571 34.293,-9.655 33.745,-8.765C32.973,-7.513 32.172,-6.279 31.417,-5.018C30.592,-3.64 29.806,-2.239 29.001,-0.85C28.327,0.314 27.664,1.486 26.968,2.637C26.187,3.929 25.401,5.22 24.566,6.478C23.723,7.747 22.835,8.989 21.933,10.219C20.562,12.088 19.157,13.932 17.776,15.795C17.198,16.574 16.656,17.38 16.077,18.158C15.606,18.793 15.1,19.402 14.618,20.028C12.707,22.509 11.043,22.667 8.882,24.959C8.601,25.257 6.632,27.009 6.385,27.343C5.603,28.405 5.437,28.342 3.701,29.623C2.297,30.467 2.176,30.868 0.712,31.084C-0.546,31.27 -1.499,30.576 -2.379,29.801C-3.08,29.184 -3.784,28.562 -4.415,27.875C-5.04,27.196 -5.702,26.5 -6.119,25.694C-6.744,24.487 -7.569,23.506 -8.541,22.575C-9.665,21.497 -10.609,20.235 -11.701,19.122C-12.282,18.531 -13.035,18.114 -13.667,17.568C-14.615,16.747 -15.538,15.897 -16.449,15.034C-17.356,14.174 -18.262,13.309 -19.118,12.399C-20,11.46 -20.82,10.463 -21.667,9.492C-21.728,9.422 -21.773,9.316 -21.849,9.283C-22.932,8.815 -23.403,7.827 -24.035,6.919C-25.195,5.256 -26.456,3.642 -27.832,2.154C-29.288,0.578 -30.922,-0.836 -32.491,-2.306C-33.652,-3.392 -34.79,-4.508 -36.016,-5.514C-37.37,-6.624 -38.294,-8.061 -39.335,-9.423C-41.169,-11.822 -42.471,-14.515 -43.738,-17.224C-44.957,-19.834 -45.886,-22.551 -46.463,-25.382C-46.68,-26.445 -47.041,-27.489 -47.155,-28.561C-47.314,-30.056 -47.418,-31.575 -47.335,-33.073C-47.228,-35.026 -47.05,-36.997 -46.646,-38.905C-46.322,-40.436 -45.671,-41.908 -45.067,-43.366C-44.344,-45.114 -43.179,-46.598 -41.991,-48.048C-39.665,-50.887 -36.619,-52.159 -32.976,-52.277C-29.778,-52.38 -26.71,-51.85 -23.823,-50.543C-22.034,-49.732 -20.356,-48.659 -18.683,-47.617C-17.374,-46.802 -16.09,-45.923 -14.9,-44.945C-13.599,-43.876 -12.401,-42.678 -11.191,-41.502C-10.39,-40.723 -9.616,-39.91 -8.885,-39.065C-7.911,-37.938 -6.994,-36.761 -6.043,-35.613C-5.556,-35.026 -5.027,-34.474 -4.559,-33.873C-4.02,-33.179 -3.502,-32.466 -3.021,-31.732C-2.14,-30.388 -1.295,-29.02 -0.428,-27.668C-0.328,-27.512 -0.178,-27.39 0,-27.197" style="fill:rgb(255,203,77);fill-rule:nonzero;"/>
                    </g>
                    <g transform="matrix(1,0,0,1,197.609,677.061)">
                        <path d="M0,-21.009C5.033,-20.604 6.699,-30.509 17.058,-40.852C26.089,-49.869 34.224,-51.728 36.675,-52.191C40.659,-52.944 46.964,-54.136 50.321,-50.301C54.619,-45.393 51.501,-35.206 49.469,-28.568C45.408,-15.302 38.925,-6.322 34.969,-1.166C17.723,21.315 9.72,33.127 1.706,32.851C-3.427,32.673 -3.54,29.66 -23.881,11.118C-39.054,-2.712 -43.346,-5.004 -46.91,-13.45C-47.927,-15.86 -54.372,-31.773 -47.763,-39.907C-40.624,-48.694 -23.82,-41.551 -22.176,-40.852C-14.302,-37.505 -9.31,-31.844 -6.823,-28.568C-4.172,-22.557 -1.749,-21.15 0,-21.009Z" style="fill:none;fill-rule:nonzero;stroke:white;stroke-width:1.8px;"/>
                    </g>
                    <g transform="matrix(1,0,0,1,173.648,646.735)">
                        <path d="M0,-6.125C-0.317,-5.751 -1.251,-4.553 -1.242,-2.85C-1.231,-0.995 -0.107,1.032 1.899,1.712C3.318,2.193 5.226,2.016 6.371,0.785C8.051,-1.019 6.945,-3.854 6.596,-4.749C6.195,-5.776 5.315,-8.032 3.41,-8.204C2.148,-8.318 0.844,-7.479 0,-6.125" style="fill:rgb(0,43,73);fill-rule:nonzero;"/>
                    </g>
                    <g transform="matrix(1,0,0,1,176.457,685.481)">
                        <path d="M0,-32.336C-3.406,-31.646 -4.783,-25.07 -5.892,-19.781C-7.591,-11.672 -6.586,-7.438 -6.16,-5.915C-5.537,-3.69 -4.863,-1.406 -2.969,-0.528C-1.362,0.217 -0.352,-0.734 4.745,-1.825C9.331,-2.806 10.186,-2.394 11.053,-3.449C11.819,-4.381 11.922,-5.638 10.295,-12.912C8.985,-18.767 8.304,-21.75 7.066,-24.498C5.637,-27.671 4.026,-30.074 2.812,-31.68C2.068,-32.135 1.068,-32.553 0,-32.336" style="fill:rgb(0,43,73);fill-rule:nonzero;"/>
                    </g>
                    <g transform="matrix(1,0,0,1,208.75,674.937)">
                        <path d="M0,-18.04C-0.585,-15.267 -0.656,-12.945 -0.607,-11.329C-0.53,-8.793 -0.343,-4.402 2.432,-0.449C3.349,0.857 4.298,2.168 5.994,2.616C8.58,3.297 10.975,1.465 11.434,1.096C12.556,0.196 13.596,-1.175 15.107,-9.177C16.653,-17.368 16.053,-18.529 15.464,-19.201C13.595,-21.337 9.694,-21.001 8.671,-20.913C6.951,-20.765 5.418,-20.2 3.231,-19.393C1.878,-18.895 0.776,-18.406 0,-18.04" style="fill:rgb(0,43,73);fill-rule:nonzero;"/>
                    </g>
                    <g transform="matrix(1,0,0,1,212.339,646.774)">
                        <path d="M0,-6.974C-1.071,-5.249 -0.31,-3.304 0.414,-1.454C0.979,-0.014 1.903,2.349 3.485,2.478C5.217,2.619 6.807,0.008 7.314,-1.973C7.796,-3.855 7.93,-7.635 5.416,-8.768C3.587,-9.593 1.069,-8.696 0,-6.974" style="fill:rgb(0,43,73);fill-rule:nonzero;"/>
                    </g>
                </g>
            </g>
        </g>
    </g>
</svg>
