<?xml version="1.0" encoding="UTF-8" standalone="no"?>
<svg width="100%" height="100%" viewBox="0 0 151 151" version="1.1" xmlns="http://www.w3.org/2000/svg" xmlns:xlink="http://www.w3.org/1999/xlink" xml:space="preserve" xmlns:serif="http://www.serif.com/" style="fill-rule:evenodd;clip-rule:evenodd;stroke-miterlimit:10;">
    <g transform="matrix(1,0,0,1,-2519,-2698)">
        <g id="ArtBoard1" transform="matrix(0.87466,0,0,0.986508,1083.91,855.244)">
            <rect x="1641.61" y="1868.4" width="171.495" height="152.051" style="fill:none;"/>
            <g transform="matrix(1.1433,0,0,1.01368,1797.17,1939.47)">
                <path d="M0,-5.88C-0.614,0.227 -0.964,6.378 -1.934,12.428C-2.593,16.543 -3.969,20.569 -6.034,24.281C-6.859,25.766 -7.59,27.304 -8.445,28.77C-11.229,33.539 -15.271,37.01 -19.925,39.86C-27.898,44.742 -36.694,46.989 -45.85,48.293C-52.497,49.238 -58.933,48.548 -65.307,46.693C-68.603,45.734 -71.917,44.819 -75.159,43.699C-76.611,43.198 -77.982,42.352 -79.258,41.471C-83.995,38.2 -88.375,34.48 -91.904,29.917C-96.643,23.787 -100.579,17.242 -101.104,9.202C-101.219,7.438 -101.736,5.675 -101.653,3.93C-101.502,0.752 -101.182,-2.434 -100.673,-5.575C-100.058,-9.368 -99.354,-13.164 -98.36,-16.872C-97.115,-21.52 -94.858,-25.769 -92.454,-29.922C-91.202,-32.084 -89.979,-34.269 -88.614,-36.359C-85.344,-41.368 -80.854,-45.028 -75.564,-47.719C-69.639,-50.73 -63.299,-52.554 -56.816,-53.82C-50.171,-55.118 -43.58,-54.597 -37.029,-52.86C-31.862,-51.49 -26.875,-49.684 -22.22,-47.099C-18.925,-45.27 -16.203,-42.746 -14.218,-39.414C-12.479,-36.496 -10.41,-33.775 -8.481,-30.971C-6.068,-27.466 -4.192,-23.69 -2.625,-19.736C-1.49,-16.875 -0.698,-13.933 -0.338,-10.897C-0.143,-9.255 -0.303,-7.571 -0.303,-5.905L0,-5.88Z" style="fill:rgb(130,213,231);fill-rule:nonzero;"/>
            </g>
            <g transform="matrix(1.1433,0,0,1.01368,1731.85,1896)">
                <path d="M0,49.877C-0.262,50.045 -0.384,50.17 -0.529,50.209C-2.343,50.689 -4.141,51.27 -5.984,51.587C-7.155,51.789 -8.236,51.249 -9.06,50.31C-9.237,50.108 -9.541,50.006 -9.801,49.89C-10.214,49.705 -10.733,49.644 -11.037,49.354C-11.466,48.947 -11.799,48.899 -12.365,49.047C-13.272,49.284 -14.289,49.607 -15.15,49.411C-16.975,48.997 -18.587,49.649 -20.281,49.977C-21.61,50.234 -22.958,50.451 -24.277,49.892C-24.522,49.787 -24.767,49.666 -24.985,49.514C-26.434,48.501 -27.867,47.465 -29.331,46.474C-29.476,46.376 -29.819,46.465 -30.019,46.567C-32.162,47.664 -34.425,48.247 -36.832,48.054C-38.629,47.911 -39.901,46.957 -40.696,45.312C-41.054,44.571 -41.493,43.829 -42.048,43.231C-43.445,41.725 -44.001,39.857 -44.241,37.941C-44.483,36.002 -44.38,34.019 -44.429,32.056C-44.434,31.869 -44.37,31.578 -44.463,31.51C-45.415,30.825 -45.145,29.75 -45.133,28.904C-45.1,26.557 -44.894,24.207 -44.646,21.87C-44.426,19.806 -43.981,17.767 -42.926,15.95C-42.186,14.678 -41.424,13.375 -40.441,12.297C-38.702,10.391 -36.821,8.609 -34.93,6.849C-34.008,5.99 -32.93,5.299 -31.923,4.532C-31.985,4.495 -32.048,4.458 -32.111,4.421C-31.974,4.113 -31.915,3.725 -31.691,3.509C-29.942,1.824 -27.023,1.776 -25.152,3.375C-24.631,3.821 -24.506,4.366 -24.889,4.962C-25.264,5.546 -25.668,6.111 -26.111,6.758C-23.94,6.3 -21.871,5.865 -19.835,5.435C-20.02,4.567 -20.233,3.771 -20.355,2.962C-20.694,0.716 -19.067,-1.204 -16.812,-1.043C-15.266,-0.933 -13.916,-1.644 -12.459,-1.759C-10.524,-1.912 -8.572,-1.872 -6.628,-1.86C-5.603,-1.853 -4.579,-1.724 -3.555,-1.661C-2.021,-1.565 -0.988,-0.637 -0.014,0.417C0.172,0.617 0.511,0.841 0.742,0.807C2.401,0.559 3.306,1.617 4.086,2.763C4.768,3.763 4.615,4.054 3.481,4.445C2.485,4.788 1.473,5.086 0.476,5.426C-0.053,5.606 -0.365,5.864 -0.187,6.562C0.598,9.655 -0.641,12.269 -2.218,14.8C-3.042,16.124 -3.924,17.444 -3.767,19.128C-3.749,19.316 -3.779,19.517 -3.723,19.693C-3.316,20.964 -3.79,22.047 -4.368,23.146C-5.621,25.533 -7.595,27.216 -9.729,28.741C-11.235,29.818 -12.734,30.924 -14.337,31.84C-15.54,32.528 -16.925,32.891 -18.189,33.483C-19.201,33.957 -20.17,34.532 -21.118,35.125C-21.323,35.253 -21.459,35.657 -21.452,35.929C-21.406,37.822 -20.781,39.508 -19.583,40.988C-18.819,41.931 -18.102,42.91 -17.33,43.917C-16.933,43.265 -16.637,42.613 -16.188,42.095C-15.839,41.691 -15.331,41.273 -14.835,41.181C-13.699,40.97 -12.527,40.895 -11.368,40.876C-10.185,40.857 -9.231,41.388 -8.346,42.209C-6.67,43.764 -4.953,45.288 -3.134,46.67C-2.309,47.297 -1.711,48.026 -1.126,48.832C-0.852,49.209 -0.434,49.483 0,49.877" style="fill:rgb(184,234,222);fill-rule:nonzero;"/>
            </g>
            <g transform="matrix(1.1433,0,0,1.01368,1746.83,1984.98)">
                <path d="M0,-51.104C0.555,-51.061 0.996,-51.122 1.359,-50.983C3.301,-50.24 5.312,-50.37 7.327,-50.378C8.279,-50.382 9.126,-50.5 10.039,-50.885C12.366,-51.864 14.873,-52.433 17.363,-51.894C20.007,-51.322 22.262,-49.845 23.932,-47.673C24.399,-47.064 24.55,-46.19 24.759,-45.413C24.903,-44.877 25.199,-44.781 25.651,-44.888C26.963,-45.197 28.259,-45.612 29.588,-45.799C30.462,-45.923 31.503,-45.976 32.253,-45.614C33.444,-45.037 34.509,-44.151 35.523,-43.276C36.296,-42.609 36.39,-41.68 36.087,-40.67C35.647,-39.203 35.239,-37.72 34.94,-36.219C34.536,-34.195 34.899,-32.343 36.346,-30.739C36.749,-30.291 36.941,-29.591 37.076,-28.974C37.297,-27.963 36.36,-27.575 35.833,-26.971C35.082,-26.11 34.333,-25.247 33.592,-24.379C33.321,-24.061 33.088,-23.711 32.816,-23.396C31.803,-22.221 30.771,-21.064 29.765,-19.884C28.657,-18.585 27.598,-17.245 26.459,-15.976C26.099,-15.574 25.57,-15.304 25.082,-15.042C24.49,-14.724 23.706,-13.17 23.962,-12.422C24.328,-11.356 23.831,-10.667 23.081,-10.124C22.233,-9.509 21.294,-9.021 20.405,-8.46C19.369,-7.808 18.661,-6.872 18.101,-5.798C17.921,-5.451 17.664,-5.114 17.364,-4.866C14.519,-2.519 11.242,-1.078 7.67,-0.225C6.47,0.062 5.321,0.557 4.147,0.952C3.026,1.329 1.9,1.275 0.8,0.894C0.622,0.832 0.544,0.469 0.43,0.24C0.412,0.203 0.442,0.132 0.464,0.085C1.633,-2.407 1.807,-5.147 2.301,-7.789C2.683,-9.824 2.823,-11.965 1.953,-13.995C1.809,-14.332 1.755,-14.737 1.768,-15.107C1.809,-16.299 1.185,-17.248 0.745,-18.28C0.455,-18.96 0.325,-19.732 0.258,-20.476C0.207,-21.029 0.018,-21.147 -0.505,-21.246C-2.04,-21.535 -3.602,-21.799 -5.066,-22.32C-8.072,-23.388 -9.914,-25.574 -10.456,-28.733C-10.807,-30.776 -11.019,-32.844 -11.25,-34.906C-11.29,-35.259 -11.068,-35.633 -11.049,-36.003C-10.995,-37.038 -10.93,-38.078 -10.977,-39.112C-11.002,-39.655 -11.321,-40.181 -11.374,-40.728C-11.397,-40.963 -11.126,-41.402 -10.914,-41.455C-9.792,-41.737 -9.627,-42.401 -9.625,-43.495C-9.622,-47.033 -7.862,-48.941 -4.602,-50.103C-3.992,-50.321 -3.374,-50.536 -2.741,-50.665C-1.789,-50.859 -0.821,-50.976 0,-51.104" style="fill:rgb(184,234,222);fill-rule:nonzero;"/>
            </g>
            <g transform="matrix(1.1433,0,0,1.01368,1714.91,1889.04)">
                <path d="M0,-1.158C0.499,-1.47 0.812,-1.712 1.163,-1.878C3.504,-2.987 5.838,-4.028 8.434,-4.546C11.235,-5.106 14.004,-5.138 16.813,-4.999C18.968,-4.891 21.126,-4.711 23.28,-4.745C26.671,-4.798 29.256,-3.133 31.705,-1.091C31.86,-0.962 31.949,-0.753 32.096,-0.543C31.029,-0.035 30.525,0.846 30.182,1.866C29.668,3.392 28.638,3.98 27.117,3.435C25.729,2.937 24.356,2.336 23.084,1.596C22.256,1.115 21.621,0.301 20.826,-0.433C20.719,-0.204 20.516,0.13 20.403,0.491C20.104,1.453 19.461,1.864 18.44,1.915C16.641,2.007 14.843,2.148 13.053,2.343C9.982,2.677 7.301,1.739 4.867,-0.053C4.661,-0.205 4.542,-0.478 4.395,-0.702C3.97,-1.354 3.457,-1.779 2.596,-1.594C1.811,-1.426 1.011,-1.325 0,-1.158" style="fill:rgb(184,234,222);fill-rule:nonzero;"/>
            </g>
            <g transform="matrix(1.1433,0,0,1.01368,1718.83,1928.99)">
                <path d="M0,4.055C1.452,3.634 1.672,2.407 2.293,1.474C2.462,1.222 2.839,1.05 3.153,0.965C4.093,0.714 5.056,0.551 5.995,0.299C6.321,0.212 6.702,0.039 6.89,-0.217C7.943,-1.656 9.4,-1.373 10.873,-1.319C12.668,-1.255 14.472,-1.337 16.269,-1.417C17.959,-1.492 19.669,-1.895 21.268,-0.982C21.582,-0.803 21.872,-0.581 22.174,-0.379C22.179,-0.277 22.185,-0.175 22.19,-0.073C21.058,0.313 19.94,0.749 18.789,1.07C17.735,1.365 16.748,1.66 16.048,2.618C15.455,3.427 14.533,3.212 13.656,3.211C12.688,3.21 11.683,3.314 10.761,3.593C8.809,4.182 6.937,5.067 4.963,5.542C3.268,5.95 1.622,5.456 0,4.055" style="fill:rgb(184,234,222);fill-rule:nonzero;"/>
            </g>
            <g transform="matrix(1.1433,0,0,1.01368,1721.57,1923.56)">
                <path d="M0,3.312C0.157,2.905 0.29,2.543 0.436,2.186C0.508,2.013 0.575,1.825 0.695,1.687C1.802,0.417 4.482,-1.129 6.418,0.182C6.641,0.333 6.798,0.582 6.987,0.786C6.772,0.963 6.578,1.181 6.336,1.306C6.078,1.438 5.778,1.529 5.489,1.556C4.309,1.666 3.557,2.283 3.167,3.391C3.101,3.579 2.964,3.778 2.803,3.892C2.026,4.441 0.506,4.083 0,3.312" style="fill:rgb(184,234,222);fill-rule:nonzero;"/>
            </g>
            <g transform="matrix(1.1433,0,0,1.01368,1766.71,1891.92)">
                <path d="M0,89.821C-0.574,90.139 -1.126,90.51 -1.726,90.767C-7.531,93.252 -13.561,94.958 -19.744,96.23C-23.649,97.033 -27.519,96.881 -31.391,96.377C-35.286,95.87 -39.221,95.4 -43.011,94.423C-47.369,93.301 -51.568,91.622 -55.205,88.797C-57.408,87.085 -59.812,85.626 -61.952,83.844C-66.461,80.089 -69.977,75.477 -72.836,70.375C-74.67,67.103 -75.4,63.45 -76.422,59.875C-77.889,54.743 -77.41,49.67 -76.85,44.549C-76.449,40.885 -76.172,37.19 -75.46,33.584C-74.347,27.943 -73.198,22.237 -70.139,17.254C-68.444,14.495 -66.391,11.924 -64.268,9.467C-62.094,6.953 -59.651,4.7 -56.874,2.783C-49.876,-2.046 -42.291,-5.494 -33.849,-6.565C-28.93,-7.189 -23.897,-7.212 -19.029,-5.774C-14.373,-4.398 -9.662,-3.154 -5.12,-1.462C-0.169,0.381 4.128,3.37 7.725,7.307C9.201,8.921 10.736,10.484 12.309,12.004C15.352,14.946 16.837,18.819 18.751,22.455C21.383,27.455 23.185,32.766 24.7,38.163C26.032,42.91 25.837,47.768 25.19,52.657C24.229,59.917 21.517,66.519 18.086,72.873C15.799,77.108 12.563,80.606 9.127,83.941C7.038,85.97 4.62,87.454 2.05,88.739C1.615,88.957 1.151,89.118 0.589,89.101C1.504,88.517 2.384,87.867 3.34,87.36C6.827,85.507 9.486,82.709 12.121,79.86C17.424,74.127 20.513,67.217 22.872,59.905C24.256,55.616 24.877,51.197 24.98,46.712C25.087,42.115 23.922,37.762 22.521,33.398C20.791,28.01 18.194,23.038 15.737,18.001C14.78,16.042 13.288,14.304 11.846,12.633C10.067,10.573 8.122,8.652 6.184,6.736C2.699,3.29 -1.33,0.576 -5.943,-1.028C-10.93,-2.761 -15.981,-4.489 -21.146,-5.481C-25.065,-6.234 -29.227,-6.136 -33.244,-5.867C-38.795,-5.495 -43.932,-3.477 -48.915,-1.003C-51.781,0.42 -54.518,1.967 -57.104,3.859C-60.73,6.512 -63.706,9.769 -66.557,13.192C-70.918,18.429 -72.891,24.687 -74.186,31.178C-75.066,35.589 -75.619,40.073 -76.132,44.546C-76.479,47.563 -76.447,50.621 -76.687,53.653C-76.896,56.304 -75.813,58.706 -75.406,61.236C-74.301,68.106 -70.559,73.615 -66.153,78.736C-63.362,81.98 -60.218,84.844 -56.5,87.046C-55.025,87.92 -53.742,89.125 -52.247,89.954C-47.547,92.561 -42.539,94.301 -37.174,94.941C-34.404,95.271 -31.643,95.703 -28.868,95.986C-24.059,96.477 -19.407,95.534 -14.75,94.439C-10.168,93.361 -5.824,91.647 -1.474,89.922C-1.175,89.804 -0.881,89.671 -0.576,89.574C-0.447,89.533 -0.294,89.568 -0.152,89.568C-0.102,89.652 -0.051,89.737 0,89.821" style="fill:rgb(51,194,160);fill-rule:nonzero;"/>
            </g>
            <g transform="matrix(1.1433,0,0,1.01368,1668.28,1929.94)">
                <path d="M0,8.865C-1.594,6.919 -3.187,4.969 -4.864,3.092C-6.302,1.482 -7.878,-0.079 -9.855,-1.011C-10.765,-1.439 -11.563,-0.085 -10.648,0.346C-8.731,1.249 -7.257,2.761 -5.867,4.325C-4.231,6.165 -2.671,8.072 -1.111,9.976C-0.842,10.304 -0.279,10.255 0,9.976C0.325,9.651 0.27,9.194 0,8.865" style="fill:rgb(247,125,125);fill-rule:nonzero;"/>
            </g>
            <g transform="matrix(1.1433,0,0,1.01368,1660.86,1971.9)">
                <path d="M0,-7.325C-1.56,-6.294 -3.145,-5.292 -4.679,-4.221C-6.005,-3.294 -7.297,-2.214 -7.988,-0.714C-8.165,-0.329 -8.097,0.132 -7.706,0.361C-7.367,0.559 -6.809,0.467 -6.631,0.079C-6.015,-1.26 -4.874,-2.188 -3.683,-3.004C-2.208,-4.015 -0.7,-4.982 0.793,-5.968C1.633,-6.523 0.847,-7.884 0,-7.325" style="fill:rgb(247,125,125);fill-rule:nonzero;"/>
            </g>
            <g transform="matrix(1.10035,0.275235,0.310431,-0.975595,1682.12,1936.79)">
                <path d="M1.406,-0.224C1.293,3.212 1.809,6.619 2.926,9.87C3.256,10.829 1.732,11.215 1.406,10.265C0.248,6.897 -0.283,3.326 -0.166,-0.233C-0.132,-1.244 1.439,-1.236 1.406,-0.224" style="fill:rgb(247,125,125);fill-rule:nonzero;"/>
            </g>
            <g transform="matrix(0.845137,-0.682689,-0.769988,-0.749317,1699.41,1943.92)">
                <path d="M-1.824,3.142L8.187,3.142C9.2,3.141 9.122,4.711 8.114,4.711L-1.897,4.711C-2.911,4.711 -2.833,3.141 -1.824,3.142" style="fill:rgb(247,125,125);fill-rule:nonzero;"/>
            </g>
            <g transform="matrix(1.1433,0,0,1.01368,1690.33,1970.86)">
                <path d="M0,-21.192C-0.193,-21.645 -0.497,-21.835 -0.903,-21.914C-3.603,-22.443 -5.782,-21.521 -7.373,-19.353C-8.181,-18.252 -8.776,-16.99 -9.415,-15.773C-9.862,-14.922 -10.22,-14.025 -10.55,-13.297C-11.014,-13.942 -11.391,-14.799 -12.043,-15.306C-13.713,-16.606 -15.469,-17.805 -17.262,-18.933C-18.115,-19.469 -19.1,-19.861 -20.077,-20.12C-21.669,-20.541 -23.229,-20.088 -24.757,-19.634C-26.107,-19.233 -26.735,-18.311 -26.779,-16.897C-26.811,-15.87 -26.4,-15.013 -26.078,-14.082C-26.047,-13.994 -26.008,-13.911 -25.975,-13.825C-22.497,-9.478 -18.649,-5.689 -14.455,-1.932C-13.112,-0.728 -11.826,0.353 -10.373,1.251C-9.923,1.137 -9.481,0.987 -9.04,0.846C-7.949,0.498 -7.287,-0.288 -6.823,-1.305C-6.034,-3.033 -5.238,-4.758 -4.384,-6.454C-3.681,-7.85 -2.804,-9.163 -2.157,-10.582C-1.181,-12.729 -0.215,-14.894 0.224,-17.238C0.473,-18.572 0.558,-19.888 0,-21.192" style="fill:rgb(243,67,67);fill-rule:nonzero;"/>
            </g>
        </g>
    </g>
</svg>
