<?xml version="1.0" encoding="UTF-8" standalone="no"?>
<svg width="100%" height="100%" viewBox="0 0 151 151" version="1.1" xmlns="http://www.w3.org/2000/svg" xmlns:xlink="http://www.w3.org/1999/xlink" xml:space="preserve" xmlns:serif="http://www.serif.com/" style="fill-rule:evenodd;clip-rule:evenodd;stroke-miterlimit:10;">
    <g transform="matrix(1,0,0,1,-1673,-2696)">
        <g id="ArtBoard1" transform="matrix(0.87466,0,0,0.986508,237.56,853.508)">
            <rect x="1641.61" y="1868.4" width="171.495" height="152.051" style="fill:none;"/>
            <clipPath id="_clip1">
                <rect x="1641.61" y="1868.4" width="171.495" height="152.051"/>
            </clipPath>
            <g clip-path="url(#_clip1)">
                <g transform="matrix(1.1433,0,0,1.01368,1709.53,1970.21)">
                    <path d="M0,-73.389C-6.354,-70.086 -13.113,-63.049 -16.299,-55.46C-22.524,-40.634 -14.339,-25.545 -11.41,-20.144C-8.278,-14.372 -2.181,-3.132 11.41,1.588C27.647,7.228 41.777,-0.885 44.008,-2.215C46.282,-3.571 60.21,-12.202 63.025,-29.924C65.739,-47.016 55.802,-59.347 53.245,-62.522C42.85,-75.432 26.78,-80.617 17.929,-79.365C9.9,-78.23 1.087,-73.933 1.087,-73.933C0.892,-73.837 0.418,-73.606 0,-73.389" style="fill:rgb(159,155,194);fill-rule:nonzero;"/>
                </g>
                <g transform="matrix(1.1433,0,0,1.01368,1698.35,1978.39)">
                    <path d="M0,-86.888C-3.602,-84.724 -18.117,-76.005 -24.449,-57.549C-25.854,-53.455 -30.604,-38.927 -24.449,-23.32C-21.11,-14.853 -15.858,-9.357 -13.583,-7.021C-10.903,-4.269 -5.591,1.079 2.716,4.388C8.192,6.57 10.085,5.919 29.882,7.105C46.758,8.116 47.454,8.712 51.071,7.648C63.138,4.1 69.587,-6.71 71.717,-10.281C77.971,-20.764 78.126,-30.778 78.237,-37.99C78.352,-45.436 78.535,-57.278 71.174,-68.959C65.47,-78.009 57.689,-83.073 54.331,-85.258C48.926,-88.776 43.961,-90.738 41.292,-91.778C36.914,-93.483 34.008,-94.615 29.882,-95.038C24.395,-95.6 20.195,-94.555 15.756,-93.408C7.59,-91.297 1.824,-87.984 0,-86.888Z" style="fill:none;fill-rule:nonzero;stroke:rgb(159,155,194);stroke-width:3.06px;"/>
                </g>
                <g transform="matrix(-0.762331,0.755447,0.85205,0.675899,1738.77,1893.11)">
                    <path d="M6.833,-10.171C9.559,-9.12 12.647,-5.034 12.63,-2.798C12.603,0.661 10.142,4.136 6.833,3.68C3.124,3.169 -3.161,-3.074 -1.479,-7.401C0.653,-10.598 2.145,-11.45 6.833,-10.171" style="fill:rgb(0,43,73);fill-rule:nonzero;"/>
                </g>
                <g transform="matrix(1.1433,0,0,1.01368,1727.56,1998.71)">
                    <path d="M0,-51.281C-3.784,-38.232 -4.456,-24.427 -2.196,-11.045C-1.575,-7.366 -0.709,-3.732 0.386,-0.165C0.914,1.553 2.813,2.821 4.617,2.238C6.348,1.677 7.585,-0.151 7.019,-1.993C6.07,-5.085 5.292,-8.226 4.698,-11.404C4.561,-12.138 4.433,-12.873 4.316,-13.61C4.25,-14.019 4.187,-14.429 4.128,-14.839C4.104,-15.003 4.082,-15.167 4.058,-15.332C3.945,-16.113 4.137,-14.681 4.049,-15.403C3.85,-17.05 3.677,-18.697 3.562,-20.352C3.341,-23.537 3.296,-26.732 3.426,-29.922C3.492,-31.537 3.603,-33.15 3.759,-34.76C3.832,-35.502 3.913,-36.244 4.004,-36.984C4.029,-37.19 4.057,-37.395 4.083,-37.601C4.15,-38.133 3.956,-36.726 4.077,-37.549C4.138,-37.959 4.196,-38.369 4.259,-38.779C4.821,-42.384 5.617,-45.949 6.633,-49.452C7.134,-51.18 6.025,-53.275 4.231,-53.683C2.393,-54.102 0.537,-53.131 0,-51.281" style="fill:rgb(0,43,73);fill-rule:nonzero;"/>
                </g>
                <g transform="matrix(1.1433,0,0,1.01368,1740.31,2002.48)">
                    <path d="M0,-56.38C0.54,-52.595 1.08,-48.811 1.621,-45.027C1.891,-43.135 2.16,-41.242 2.431,-39.35C2.498,-38.874 2.565,-38.399 2.633,-37.923C2.658,-37.748 2.734,-37.25 2.616,-38.06C2.653,-37.801 2.684,-37.54 2.716,-37.281C2.834,-36.33 2.936,-35.376 3.004,-34.419C3.133,-32.593 3.106,-30.773 2.926,-28.951C2.879,-28.475 2.824,-28.001 2.765,-27.527C2.738,-27.311 2.711,-27.095 2.683,-26.88C2.661,-26.711 2.542,-25.822 2.668,-26.761C2.51,-25.589 2.347,-24.417 2.214,-23.243C1.787,-19.495 1.61,-15.723 1.569,-11.953C1.521,-7.643 1.649,-3.333 1.776,0.975C1.83,2.771 3.32,4.499 5.216,4.414C7.034,4.333 8.713,2.901 8.655,0.975C8.427,-6.741 8.196,-14.49 8.978,-22.184C9.068,-23.062 9.172,-23.937 9.286,-24.812C9.308,-24.981 9.427,-25.871 9.301,-24.932C9.354,-25.323 9.407,-25.714 9.459,-26.105C9.528,-26.621 9.597,-27.139 9.66,-27.656C9.892,-29.558 10.024,-31.46 9.942,-33.377C9.774,-37.362 9.043,-41.328 8.48,-45.271C7.864,-49.584 7.249,-53.896 6.633,-58.209C6.52,-59 5.708,-59.881 5.053,-60.264C4.315,-60.696 3.229,-60.879 2.402,-60.611C1.57,-60.342 0.767,-59.826 0.347,-59.031C-0.115,-58.156 -0.139,-57.35 0,-56.38" style="fill:rgb(0,43,73);fill-rule:nonzero;"/>
                </g>
                <g transform="matrix(1.1433,0,0,1.01368,1724.37,1969.59)">
                    <path d="M0,-57.868C-2.868,-55.612 -5.149,-52.66 -7.08,-49.585C-8.939,-46.624 -10.636,-43.475 -12.04,-40.272C-12.902,-38.306 -13.659,-36.319 -14.069,-34.205C-14.467,-32.144 -14.667,-30.041 -14.733,-27.944C-14.86,-23.924 -14.709,-19.881 -14.483,-15.867C-14.229,-11.373 -13.803,-6.891 -13.215,-2.429C-13.089,-1.48 -12.914,-0.704 -12.207,0.003C-11.611,0.599 -10.632,1.048 -9.775,1.01C-8.886,0.97 -7.963,0.678 -7.343,0.003C-6.773,-0.618 -6.22,-1.551 -6.335,-2.429C-7.361,-10.201 -7.906,-18.048 -7.886,-25.889C-7.884,-26.745 -7.871,-27.601 -7.836,-28.457C-7.795,-29.436 -7.828,-30.569 -7.591,-31.524C-7.793,-30.708 -7.625,-31.265 -7.589,-31.495C-7.556,-31.705 -7.521,-31.916 -7.483,-32.125C-7.406,-32.544 -7.319,-32.961 -7.219,-33.376C-6.986,-34.351 -6.68,-35.306 -6.322,-36.242C-6.248,-36.435 -6.168,-36.627 -6.093,-36.82C-5.904,-37.311 -6.441,-36.05 -6.1,-36.8C-5.911,-37.217 -5.725,-37.634 -5.528,-38.046C-5.116,-38.908 -4.679,-39.758 -4.238,-40.606C-3.472,-42.074 -2.689,-43.533 -1.845,-44.957C-1.385,-45.733 -0.907,-46.498 -0.404,-47.247C-0.113,-47.683 0.188,-48.112 0.498,-48.535C0.586,-48.655 0.676,-48.775 0.765,-48.894C0.988,-49.187 0.945,-49.133 0.636,-48.73C0.729,-48.847 0.821,-48.964 0.915,-49.079C2.089,-50.527 3.399,-51.851 4.864,-53.004C5.509,-53.511 5.872,-54.658 5.872,-55.436C5.872,-56.279 5.497,-57.287 4.864,-57.868C4.209,-58.47 3.348,-58.916 2.432,-58.875C1.461,-58.832 0.758,-58.464 0,-57.868" style="fill:rgb(0,43,73);fill-rule:nonzero;"/>
                </g>
                <g transform="matrix(1.1433,0,0,1.01368,1736.85,1963.51)">
                    <path d="M0,-44.797C0.805,-43.319 1.768,-41.943 2.79,-40.609C3.402,-39.811 4.021,-39.02 4.645,-38.232C4.878,-37.938 5.112,-37.645 5.344,-37.351C5.467,-37.194 5.677,-37.002 5.76,-36.82C5.451,-37.221 5.41,-37.275 5.633,-36.983C5.702,-36.894 5.769,-36.805 5.837,-36.715C6.847,-35.379 7.802,-33.993 8.566,-32.499C8.748,-32.143 8.912,-31.779 9.079,-31.416C9.432,-30.651 8.81,-32.126 9.11,-31.339C9.168,-31.187 9.23,-31.036 9.289,-30.885C9.641,-29.974 9.96,-29.051 10.3,-28.135C10.999,-26.247 11.799,-24.403 12.779,-22.642C13.655,-21.07 14.612,-19.545 15.48,-17.967C16.339,-16.405 17.131,-14.805 17.853,-13.175C17.952,-12.953 18.048,-12.73 18.145,-12.507C18.222,-12.331 18.447,-11.954 18.083,-12.656C18.284,-12.267 18.422,-11.825 18.582,-11.417C18.922,-10.548 19.243,-9.673 19.543,-8.791C20.851,-4.953 21.781,-0.995 22.334,3.022C22.442,3.812 23.263,4.697 23.914,5.078C24.652,5.509 25.738,5.692 26.564,5.425C27.397,5.155 28.2,4.639 28.62,3.843C29.083,2.967 29.101,2.165 28.967,1.193C27.948,-6.213 25.597,-13.407 22.163,-20.045C21.319,-21.676 20.379,-23.25 19.452,-24.834C19.018,-25.577 18.592,-26.324 18.194,-27.087C17.986,-27.487 17.786,-27.889 17.597,-28.299C17.576,-28.345 17.228,-29.076 17.474,-28.559C17.711,-28.061 17.315,-28.959 17.279,-29.051C16.548,-30.921 15.915,-32.821 15.117,-34.664C14.419,-36.274 13.526,-37.77 12.508,-39.195C11.315,-40.866 10.008,-42.452 8.743,-44.067C8.582,-44.273 8.214,-44.548 8.798,-43.992C8.592,-44.188 8.427,-44.479 8.256,-44.707C7.989,-45.067 7.726,-45.43 7.471,-45.798C6.917,-46.595 6.404,-47.417 5.94,-48.269C5.078,-49.851 2.762,-50.489 1.234,-49.503C-0.371,-48.468 -0.921,-46.489 0,-44.797" style="fill:rgb(0,43,73);fill-rule:nonzero;"/>
                </g>
                <g transform="matrix(1.1433,0,0,1.01368,1747.26,1945.44)">
                    <path d="M0,-26.692C-2.564,-31.591 -6.383,-34.468 -8.693,-35.928C-12.496,-38.102 -17.929,-35.928 -21.732,-33.212C-24.221,-30.458 -24.992,-23.884 -24.992,-16.912C-24.992,-9.306 -23.363,-4.416 -21.189,1.017C-18.865,6.828 -17.348,7.964 -16.299,8.623C-11.869,11.41 -4.879,10.298 -1.087,6.45C1.625,3.699 1.808,-0.274 2.173,-8.219C2.559,-16.609 2.779,-21.382 0,-26.692" style="fill:rgb(0,43,73);fill-rule:nonzero;"/>
                </g>
            </g>
        </g>
    </g>
</svg>
