<?xml version="1.0" encoding="UTF-8" standalone="no"?>
<svg width="100%" height="100%" viewBox="0 0 151 151" version="1.1" xmlns="http://www.w3.org/2000/svg" xmlns:xlink="http://www.w3.org/1999/xlink" xml:space="preserve" xmlns:serif="http://www.serif.com/" style="fill-rule:evenodd;clip-rule:evenodd;stroke-miterlimit:10;">
    <g transform="matrix(1,0,0,1,-2518,-3039)">
        <g id="ArtBoard1" transform="matrix(0.87466,0,0,0.986508,1082.75,1196.55)">
            <rect x="1641.61" y="1868.4" width="171.495" height="152.051" style="fill:none;"/>
            <clipPath id="_clip1">
                <rect x="1641.61" y="1868.4" width="171.495" height="152.051"/>
            </clipPath>
            <g clip-path="url(#_clip1)">
                <g transform="matrix(1.12979,0,0,1.0017,1067.94,1302.92)">
                    <clipPath id="_clip2">
                        <rect x="507.739" y="587.975" width="151.451" height="98.823" clip-rule="nonzero"/>
                    </clipPath>
                    <g clip-path="url(#_clip2)">
                        <g transform="matrix(1,0,0,1,602.344,692.441)">
                            <path d="M0,-101.42C-30.116,-105.017 -50.432,-107.443 -66.984,-96.628C-84.216,-85.367 -97.093,-59.932 -90.79,-41.175C-79.227,-6.772 -2.843,6.023 35.135,-23.646C40.128,-27.547 58.933,-42.237 56.655,-62.673C55.003,-77.488 42.805,-90.543 25.63,-96.867C19.372,-98.351 10.595,-100.155 0,-101.42" style="fill:rgb(255,214,115);fill-rule:nonzero;"/>
                        </g>
                        <g transform="matrix(1,0,0,1,566.121,581.892)">
                            <path d="M0,102.195C30.048,105.04 50.319,106.959 66.522,95.796C83.392,84.174 95.583,58.556 88.855,40.05C76.514,6.105 0.212,-4.764 -36.848,25.677C-41.721,29.679 -60.071,44.752 -57.307,65.027C-55.303,79.726 -42.849,92.416 -25.609,98.29C-19.346,99.614 -10.571,101.194 0,102.195Z" style="fill:none;fill-rule:nonzero;stroke:rgb(230,246,250);stroke-width:1.6px;"/>
                        </g>
                        <g transform="matrix(1,0,0,1,556.696,643.476)">
                            <path d="M0,-14.652C1.635,-14.851 2.462,-14.256 2.731,-12.647C2.829,-12.059 2.9,-11.466 2.977,-10.875C3.065,-10.203 3.2,-10.085 3.875,-10.084C4.756,-10.082 5.637,-10.085 6.517,-10.067C7.178,-10.054 7.36,-9.851 7.364,-9.173C7.368,-8.478 7.365,-7.782 7.363,-7.087C7.362,-6.383 7.327,-6.377 6.597,-6.333C5.834,-6.288 5.063,-6.247 4.316,-6.099C3.212,-5.88 2.98,-5.41 3.131,-4.274C3.303,-2.978 3.39,-1.672 3.531,-0.372C3.578,0.067 3.35,0.199 2.982,0.189C2.026,0.163 1.069,0.146 0.117,0.069C-0.038,0.056 -0.271,-0.228 -0.296,-0.411C-0.477,-1.725 -0.611,-3.045 -0.765,-4.363C-0.799,-4.659 -0.825,-4.959 -0.9,-5.245C-1.011,-5.671 -1.278,-5.936 -1.754,-5.881C-2.478,-5.798 -3.2,-5.703 -3.923,-5.616C-4.127,-5.592 -4.332,-5.556 -4.535,-5.561C-5.632,-5.585 -5.87,-5.804 -5.833,-6.889C-5.807,-7.67 -5.7,-8.448 -5.622,-9.227C-5.584,-9.617 -5.364,-9.743 -4.972,-9.737C-3.638,-9.717 -2.304,-9.727 -0.969,-9.731C-0.136,-9.733 0.044,-10 0.012,-10.841C-0.035,-12.095 0,-13.352 0,-14.652" style="fill:rgb(249,161,161);fill-rule:nonzero;"/>
                        </g>
                        <g transform="matrix(1,0,0,1,529.891,617.882)">
                            <path d="M0,-4.869C-0.252,-4.572 -0.995,-3.619 -0.987,-2.265C-0.979,-0.791 -0.085,0.821 1.51,1.361C2.638,1.744 4.155,1.603 5.065,0.625C6.401,-0.81 5.521,-3.063 5.244,-3.775C4.925,-4.592 4.225,-6.385 2.711,-6.521C1.707,-6.613 0.671,-5.946 0,-4.869" style="fill:rgb(146,142,186);fill-rule:nonzero;"/>
                        </g>
                        <g transform="matrix(1,0,0,1,532.124,648.685)">
                            <path d="M0,-25.707C-2.707,-25.158 -3.803,-19.931 -4.684,-15.726C-6.035,-9.279 -5.236,-5.914 -4.897,-4.702C-4.402,-2.934 -3.867,-1.118 -2.36,-0.42C-1.082,0.172 -0.28,-0.583 3.772,-1.451C7.418,-2.231 8.098,-1.904 8.787,-2.743C9.396,-3.483 9.478,-4.482 8.184,-10.265C7.143,-14.919 6.602,-17.292 5.618,-19.476C4.481,-21.999 3.201,-23.909 2.235,-25.186C1.644,-25.548 0.849,-25.879 0,-25.707" style="fill:rgb(146,142,186);fill-rule:nonzero;"/>
                        </g>
                        <g transform="matrix(1,0,0,1,575.266,640.826)">
                            <path d="M0,-14.342C-0.465,-12.137 -0.521,-10.291 -0.482,-9.007C-0.422,-6.991 -0.273,-3.499 1.933,-0.358C2.663,0.681 3.417,1.724 4.765,2.079C6.821,2.621 8.725,1.164 9.091,0.871C9.982,0.156 10.808,-0.935 12.009,-7.296C13.239,-13.808 12.762,-14.731 12.294,-15.266C10.808,-16.963 7.707,-16.696 6.893,-16.626C5.526,-16.508 4.308,-16.059 2.569,-15.418C1.493,-15.022 0.617,-14.633 0,-14.342" style="fill:rgb(89,206,178);fill-rule:nonzero;"/>
                        </g>
                        <g transform="matrix(1,0,0,1,629.139,638.57)">
                            <path d="M0,-14.342C-0.465,-12.137 -0.521,-10.292 -0.482,-9.007C-0.422,-6.991 -0.273,-3.499 1.933,-0.358C2.663,0.681 3.417,1.724 4.765,2.079C6.821,2.621 8.725,1.164 9.091,0.871C9.982,0.156 10.808,-0.935 12.009,-7.296C13.239,-13.808 12.762,-14.731 12.294,-15.266C10.808,-16.963 7.707,-16.696 6.893,-16.626C5.526,-16.508 4.308,-16.059 2.569,-15.418C1.493,-15.022 0.617,-14.633 0,-14.342" style="fill:rgb(51,194,160);fill-rule:nonzero;"/>
                        </g>
                        <g transform="matrix(1,0,0,1,627.917,646.908)">
                            <path d="M0,-25.707C-2.707,-25.158 -3.803,-19.931 -4.684,-15.726C-6.035,-9.279 -5.236,-5.914 -4.897,-4.702C-4.402,-2.934 -3.866,-1.118 -2.36,-0.42C-1.082,0.172 -0.28,-0.583 3.772,-1.451C7.418,-2.231 8.098,-1.904 8.787,-2.743C9.396,-3.483 9.478,-4.482 8.184,-10.265C7.143,-14.919 6.602,-17.292 5.618,-19.476C4.481,-21.999 3.201,-23.909 2.235,-25.186C1.644,-25.548 0.849,-25.879 0,-25.707" style="fill:rgb(121,116,170);fill-rule:nonzero;"/>
                        </g>
                        <g transform="matrix(1,0,0,1,626.599,616.962)">
                            <path d="M0,-6.391C-0.336,-6.193 -1.349,-5.537 -1.787,-4.255C-2.263,-2.86 -1.948,-1.044 -0.619,-0.01C0.321,0.722 1.799,1.086 2.981,0.461C4.713,-0.455 4.623,-2.872 4.594,-3.636C4.561,-4.512 4.488,-6.436 3.103,-7.062C2.185,-7.477 0.987,-7.188 0,-6.391" style="fill:rgb(121,116,170);fill-rule:nonzero;"/>
                        </g>
                        <g transform="matrix(1,0,0,1,578.12,618.438)">
                            <path d="M0,-5.545C-0.851,-4.174 -0.246,-2.627 0.329,-1.157C0.778,-0.012 1.513,1.867 2.771,1.969C4.147,2.082 5.411,0.005 5.814,-1.569C6.197,-3.065 6.305,-6.07 4.306,-6.971C2.852,-7.627 0.85,-6.913 0,-5.545" style="fill:rgb(89,206,178);fill-rule:nonzero;"/>
                        </g>
                    </g>
                </g>
            </g>
        </g>
    </g>
</svg>
